<?xml version="1.0" standalone="no"?>
<!DOCTYPE svg PUBLIC "-//W3C//DTD SVG 20010904//EN"
 "http://www.w3.org/TR/2001/REC-SVG-20010904/DTD/svg10.dtd">
<svg version="1.0" xmlns="http://www.w3.org/2000/svg"
 width="250.000000pt" height="250.000000pt" viewBox="0 0 250.000000 250.000000"
 preserveAspectRatio="xMidYMid meet">
<metadata>
Created by potrace 1.15, written by Peter Selinger 2001-2017
</metadata>
<g transform="translate(0.000000,250.000000) scale(0.100000,-0.100000)"
fill="#000000" stroke="none">
<path d="M470 1903 c-85 -225 -170 -541 -170 -634 0 -68 18 -115 61 -157 38
-37 87 -56 135 -50 41 5 41 0 -19 -116 -56 -109 -117 -189 -160 -209 -33 -16
-39 -16 -76 -1 -33 13 -44 14 -56 4 -23 -19 -18 -46 17 -85 42 -48 97 -75 154
-75 62 0 105 22 162 85 81 88 154 247 312 675 129 350 155 410 193 458 21 24
37 48 37 52 0 20 -50 77 -82 95 -30 16 -40 17 -61 8 -33 -15 -95 -141 -182
-368 -71 -185 -76 -191 -204 -297 l-73 -61 7 44 c13 88 67 282 115 422 28 78
50 150 50 160 0 27 -37 75 -70 92 -52 27 -66 20 -90 -42z"/>
<path d="M2143 1861 c-6 -3 -13 -40 -17 -81 -8 -90 -17 -129 -90 -414 -59
-228 -96 -417 -96 -492 0 -50 38 -103 91 -125 28 -11 33 -10 45 6 8 10 14 35
14 54 0 64 30 210 100 491 69 274 90 376 90 437 0 56 -102 148 -137 124z"/>
<path d="M1586 1550 c-74 -23 -109 -86 -111 -200 -1 -52 -10 -116 -23 -164
-40 -146 -23 -256 53 -331 110 -111 232 -67 336 119 86 154 101 286 45 400
-59 120 -205 206 -300 176z m173 -166 c28 -36 27 -88 -4 -169 -27 -73 -95
-181 -146 -235 l-34 -35 -3 28 c-6 47 34 164 58 170 17 4 19 12 17 55 -2 28
-9 58 -16 66 -20 23 -5 84 29 118 36 36 72 36 99 2z"/>
<path d="M1065 1511 c-81 -37 -171 -161 -209 -290 -20 -67 -21 -182 -2 -243
18 -61 69 -133 114 -163 115 -75 264 -45 351 70 42 55 40 88 -8 136 -51 51
-90 53 -120 6 -25 -40 -89 -93 -138 -113 -32 -14 -37 -14 -52 1 -37 37 -3 266
38 249 118 -49 237 -58 292 -21 91 61 92 197 2 297 -77 86 -178 113 -268 71z"/>
</g>
</svg>
