<?xml version="1.0" standalone="no"?>
<!DOCTYPE svg PUBLIC "-//W3C//DTD SVG 20010904//EN"
 "http://www.w3.org/TR/2001/REC-SVG-20010904/DTD/svg10.dtd">
<svg version="1.0" xmlns="http://www.w3.org/2000/svg"
 width="100.000000pt" height="100.000000pt" viewBox="0 0 100.000000 100.000000"
 preserveAspectRatio="xMidYMid meet">
<metadata>
Created by potrace 1.15, written by Peter Selinger 2001-2017
</metadata>
<g transform="translate(0.000000,100.000000) scale(0.100000,-0.100000)"
fill="#000000" stroke="none">
<path d="M180 746 c-22 -59 -60 -195 -66 -236 -5 -37 -2 -50 16 -72 13 -17 31
-28 46 -28 29 0 30 -14 3 -60 -38 -63 -60 -81 -91 -75 -20 5 -28 3 -28 -8 0
-20 32 -46 66 -53 63 -12 99 41 196 296 33 85 68 170 79 189 19 32 19 35 3 52
-37 41 -57 19 -110 -117 -28 -73 -43 -98 -75 -123 -50 -41 -51 -31 -5 112 30
95 32 108 19 127 -19 27 -41 25 -53 -4z"/>
<path d="M850 698 c0 -18 -14 -85 -31 -148 -16 -63 -32 -145 -36 -181 -5 -61
-4 -68 16 -78 28 -16 41 -6 41 30 0 16 16 93 35 172 41 165 44 212 16 227 -32
17 -41 12 -41 -22z"/>
<path d="M616 597 c-21 -15 -38 -100 -40 -195 -1 -47 3 -57 27 -78 34 -29 56
-30 91 -3 57 45 90 153 63 205 -34 65 -102 100 -141 71z"/>
<path d="M414 581 c-56 -34 -91 -141 -69 -211 19 -65 87 -95 144 -65 18 9 37
27 43 41 10 21 8 28 -10 46 l-21 21 -36 -32 c-49 -42 -71 -38 -68 14 2 21 6
42 10 46 5 4 27 3 51 -4 61 -16 96 4 100 56 3 32 -2 43 -31 72 -40 40 -68 44
-113 16z"/>
</g>
</svg>
